<?xml version="1.0" standalone="no"?>
<!DOCTYPE svg PUBLIC "-//W3C//DTD SVG 20010904//EN"
 "http://www.w3.org/TR/2001/REC-SVG-20010904/DTD/svg10.dtd">
<svg version="1.0" xmlns="http://www.w3.org/2000/svg"
 width="512.000000pt" height="512.000000pt" viewBox="0 0 512.000000 512.000000"
 preserveAspectRatio="xMidYMid meet">
<metadata>
Created by potrace 1.11, written by Peter Selinger 2001-2013
</metadata>
<g transform="translate(0.000000,512.000000) scale(0.100000,-0.100000)"
fill="#000000" stroke="none">
<path d="M2325 5109 c-499 -48 -984 -245 -1374 -559 -124 -100 -337 -319 -427
-440 -697 -930 -697 -2170 0 -3100 90 -121 303 -340 427 -440 793 -639 1883
-749 2785 -281 403 209 751 528 988 906 569 905 519 2052 -128 2915 -90 121
-303 340 -427 440 -516 416 -1193 621 -1844 559z m-292 -1020 c163 -54 263
-168 275 -314 9 -115 -52 -260 -145 -345 -85 -78 -171 -90 -225 -32 -66 70
-61 104 32 206 38 42 72 87 76 101 21 85 -88 178 -187 159 -91 -18 -206 -105
-270 -206 -29 -44 -34 -61 -34 -113 0 -73 23 -127 124 -283 82 -128 152 -264
175 -342 61 -202 6 -410 -149 -565 -104 -104 -217 -157 -399 -189 -48 -8 -94
-20 -102 -27 -18 -15 0 -59 63 -154 149 -226 358 -401 647 -541 457 -222 966
-264 1405 -118 279 93 561 279 748 494 83 95 198 262 243 351 l30 58 -48 49
c-46 48 -112 164 -112 197 0 22 -38 85 -51 85 -12 0 -11 -14 6 -85 21 -88 19
-255 -4 -347 -51 -200 -138 -284 -291 -282 -78 1 -130 24 -183 83 -77 85 -106
183 -116 394 -7 130 -12 161 -26 177 -23 25 -41 12 -49 -33 -3 -18 -10 -185
-16 -372 -11 -348 -21 -461 -43 -495 -18 -29 -93 -55 -159 -55 -49 0 -62 4
-84 27 -32 31 -33 47 -15 193 14 114 7 279 -15 370 -26 107 -56 186 -67 182
-7 -2 -18 -32 -24 -68 -48 -248 -156 -626 -209 -731 -28 -56 -78 -92 -146
-107 -60 -14 -102 -5 -138 29 -38 36 -38 55 4 188 48 149 66 223 66 272 0 57
-17 49 -60 -31 -95 -174 -301 -298 -500 -301 -175 -2 -260 65 -260 207 0 75
10 99 80 195 92 126 94 160 5 78 -119 -110 -251 -178 -346 -178 -45 0 -55 4
-85 34 -73 73 -39 124 139 216 237 121 352 248 433 475 31 85 94 165 130 165
31 0 82 -36 101 -72 15 -28 18 -56 17 -183 -1 -127 -5 -165 -26 -245 -37 -138
-81 -244 -138 -335 -55 -87 -60 -109 -30 -125 27 -14 79 2 136 41 139 95 230
294 253 553 14 154 40 183 139 157 49 -14 88 -52 103 -100 5 -20 15 -92 20
-161 6 -69 14 -129 18 -133 13 -13 27 41 50 179 24 147 49 217 97 273 62 72
114 87 183 52 44 -23 79 -66 117 -145 16 -31 31 -56 34 -56 3 0 4 30 2 67 -6
89 14 220 41 268 32 57 70 80 125 79 65 -1 120 -32 211 -119 118 -113 138
-159 166 -376 27 -209 54 -281 97 -258 11 6 30 32 41 57 19 41 22 64 21 167
-2 208 -71 407 -188 544 -94 110 -104 156 -43 207 27 23 38 26 87 22 164 -12
420 -230 527 -448 60 -121 80 -150 103 -150 37 0 53 54 60 200 7 146 18 181
66 219 67 53 127 5 164 -132 22 -85 25 -122 11 -176 -5 -20 -17 -72 -26 -116
-89 -417 -462 -946 -845 -1198 -101 -66 -313 -168 -430 -207 -316 -105 -663
-130 -994 -74 -365 62 -733 219 -974 416 -263 215 -427 425 -514 656 -23 61
-76 122 -106 122 -33 0 -254 153 -310 215 -58 63 -104 152 -123 237 -10 50
-10 66 6 125 15 55 27 76 65 114 29 29 63 52 86 58 62 17 165 13 239 -10 120
-37 165 -104 236 -350 46 -163 58 -189 96 -219 33 -26 73 -22 181 14 146 50
236 116 283 208 31 59 37 174 14 254 -21 74 -76 176 -146 274 -184 256 -210
528 -69 729 134 191 421 284 643 210z m1467 -430 c70 -16 118 -53 146 -112 40
-87 28 -167 -39 -243 -60 -68 -106 -88 -202 -89 -100 0 -164 28 -210 94 -26
37 -30 51 -30 110 0 58 4 75 30 116 36 59 96 103 162 121 59 16 86 16 143 3z
m-910 -219 c85 -23 144 -86 162 -171 20 -100 -29 -196 -124 -246 -71 -36 -191
-39 -253 -6 -80 43 -115 102 -115 198 0 130 68 202 225 238 21 5 48 2 105 -13z"/>
<path d="M632 2768 c-23 -23 -12 -57 36 -115 53 -63 117 -123 132 -123 21 0 8
62 -27 131 -30 57 -47 78 -78 96 -47 27 -47 27 -63 11z"/>
</g>
</svg>
